<?xml version="1.0" encoding="UTF-8"?>
<svg width="51px" height="95px" viewBox="0 0 51 95" version="1.1" xmlns="http://www.w3.org/2000/svg" xmlns:xlink="http://www.w3.org/1999/xlink">
    <!-- Generator: Sketch 54.1 (76490) - https://sketchapp.com -->
    <title>Group</title>
    <desc>Created with Sketch.</desc>
    <g id="Page-1" stroke="none" stroke-width="1" fill="none" fill-rule="evenodd">
        <g id="Group" transform="translate(0.000000, 0.000000)" fill="#FFFFFF" fill-rule="nonzero">
            <path d="M13.8997917,52.1345833 C15.9947917,51.6370833 18.7197917,51.614375 19.9460417,49.3870833 C5.47541667,46.6433333 1.336875,49.7314583 0,53.69875 C0.122708333,53.7952083 1.43229167,53.6895833 1.564375,53.69875 C7.94479167,54.1504167 8.95708333,56.2697917 6.73645833,62.3279167 C5.85770833,64.7235417 4.80770833,67.0566667 3.96520833,69.4639583 C2.13229167,74.700625 4.035,79.04 7.70583333,83.7464583 C6.38895833,77.9447917 8.61375,74.0079167 11.771875,70.41875 C16.6320833,64.8939583 18.07,58.9377083 13.8997917,52.1345833 Z" id="Path"></path>
            <path d="M21.430625,59.5616667 C26.5429167,34.96625 11.64125,0 11.64125,0 C22.5429167,5.879375 29.63375,13.3097917 33.484375,20.8114583 C39.5010417,32.5327083 35.3433333,51.720625 35.3433333,51.720625 C40.9245833,40.7639583 37.88125,28.806875 38.5779167,29.7891667 C39.2745833,30.77125 44.9895833,35.2314583 46.6604167,41.88375 C49.52875,53.306875 40.7325,66.8066667 40.7325,66.8066667 C45.4108333,62.5860417 48.8185417,51.5829167 48.8185417,51.5829167 C48.8185417,51.5829167 51.6252083,54.8747917 50.8429167,62.7139583 C49.7083333,74.0847917 37.5160417,79.7439583 37.5160417,79.7439583 C39.6670833,80.2810417 47.0029167,75.6472917 47.0029167,75.6472917 C45.455625,79.7058333 42.6789583,83.6964583 40.7472917,85.1308333 C37.154375,87.7997917 29.3614583,88.215 29.3614583,88.215 C32.4622917,89.2591667 35.5939583,89.098125 35.5939583,89.098125 C28.4497917,95.6658333 18.4504167,91.5522917 18.4504167,91.5522917 C20.7558333,93.8404167 21.89625,94.4875 22.4491667,94.626875 C19.9458333,95.6389583 14.583125,94.1654167 11.341875,90.1514583 C9.76645833,88.200625 7.43083333,82.3122917 8.99520833,78.000625 C10.6810417,73.3545833 13.2972917,70.5535417 16.035,68.59375 C17.4585417,67.5741667 20.7714583,62.73375 21.430625,59.5616667 Z" id="Path"></path>
        </g>
    </g>
</svg>