<?xml version="1.0" encoding="UTF-8"?>
<svg width="259px" height="257px" viewBox="0 0 259 257" version="1.1" xmlns="http://www.w3.org/2000/svg" xmlns:xlink="http://www.w3.org/1999/xlink">
    <!-- Generator: Sketch 53.2 (72643) - https://sketchapp.com -->
    <title>Circle Stamp</title>
    <desc>Created with Sketch.</desc>
    <g id="Page-1" stroke="none" stroke-width="1" fill="none" fill-rule="evenodd">
        <g id="circle_stamp" fill="#2D2D2D">
            <path d="M79.706,27.79 L71.206,13.298 L68.328,14.986 L69.216,27.404 L58.789,20.582 L55.889,22.282 L64.389,36.773 L66.689,35.426 L60.337,24.599 L70.376,31.233 L71.97,30.297 L71.083,18.297 L77.453,29.112 L79.706,27.79 Z M102.753,15.956 L105.295,19.197 L108.216,18.408 L96.739,4.102 L93.939,4.86 L91.16,23.019 L94.011,22.249 L94.574,18.167 L102.753,15.956 Z M101.053,13.805 L94.934,15.458 L96.045,7.425 L101.053,13.805 Z M120.243,0.098 L120.468,16.898 L127.283,16.808 C132.371,16.739 135.995,13.138 135.93,8.29 C135.865,3.42 132.17,-0.061 127.13,0.006 L120.243,0.098 Z M123.108,2.598 L127.116,2.545 C128.687357,2.48143725 130.21573,3.06673152 131.342689,4.16362056 C132.469648,5.26050961 133.096053,6.7724992 133.075,8.345 C133.150804,9.89465556 132.5842,11.4069833 131.50881,12.5253365 C130.433419,13.6436896 128.944435,14.2690713 127.393,14.254 L123.265,14.308 L123.108,2.598 Z M164.016,7.306 L164.596,4.829 L152.914,2.095 L149.079,18.45 L161.042,21.255 L161.622,18.778 L152.416,16.619 L153.474,12.111 L161.465,13.984 L162.045,11.507 L154.055,9.634 L155.09,5.219 L164.016,7.306 Z M190.528,35.098 L199.528,20.91 L197.136,19.392 L188.136,33.58 L190.528,35.098 Z M212.718,53.735 L224.418,41.682 L222.418,39.744 L214.011,48.404 L215.962,33.476 L213.962,31.536 L202.262,43.589 L204.294,45.561 L212.684,36.917 L210.716,51.795 L212.718,53.735 Z M242.084,86.609 L237.771,88.427 C236.659358,87.6326631 235.775041,86.5611399 235.206,85.319 C234.296177,83.3428592 234.533754,81.0281901 235.82604,79.2780736 C237.118326,77.5279572 239.260565,76.61969 241.41695,76.9076377 C243.573335,77.1955854 245.402199,78.6341241 246.19,80.662 C246.867868,82.3268493 246.908454,84.1831137 246.304,85.876 L248.853,86.546 C249.546723,84.2886739 249.42604,81.8594533 248.512,79.682 C246.534,74.992 241.63,72.814 237.206,74.682 C235.080699,75.5906063 233.412653,77.3193501 232.580557,79.4757565 C231.748461,81.6321629 231.82291,84.0332855 232.787,86.134 C233.734736,88.2844668 235.32391,90.0894897 237.337,91.302 L243.043,88.895 L242.084,86.609 Z M255.184,115.209 L257.694,114.797 L255.751,102.954 L239.173,105.676 L241.163,117.802 L243.673,117.39 L242.142,108.059 L246.713,107.309 L248.042,115.409 L250.552,114.995 L249.223,106.895 L253.699,106.161 L255.184,115.209 Z M240.927,141.985 L240.684,145.191 L246.568,141.859 C247.240892,144.154549 249.343869,145.733817 251.736,145.74 C255.373,146.017 257.642,143.71 257.967,139.427 L258.482,132.632 L241.733,131.361 L241.519,134.184 L246.567,134.568 L246.267,138.54 C246.247,138.802 246.227,139.065 246.233,139.307 L240.927,141.985 Z M249.104,134.759 L255.732,135.259 L255.432,139.23 C255.232,141.814 254.071,143.218 251.87,143.051 C249.597,142.88 248.608,141.311 248.804,138.728 L249.104,134.759 Z M232.084,175.302 L247.911,180.94 L249.03,177.796 L240.369,168.85 L252.743,167.372 L253.87,164.207 L238.043,158.57 L237.149,161.079 L248.974,165.291 L237.02,166.664 L236.4,168.406 L244.795,177.026 L232.961,172.836 L232.084,175.302 Z M222.106,199.173 L218.073,198.33 L216.348,200.815 L234.34,204.365 L235.997,201.98 L226.425,186.304 L224.741,188.728 L226.941,192.213 L222.106,199.173 Z M224.793,199.723 L228.406,194.519 L232.731,201.379 L224.793,199.723 Z M196.873,219.398 L207.837,232.131 L209.947,230.315 L202.068,221.164 L216.768,224.44 L218.878,222.623 L207.913,209.89 L205.767,211.74 L213.63,220.87 L198.983,217.582 L196.873,219.398 Z M181.035,235.37 L180.577,248.154 L183.148,246.854 L183.662,237.429 L191.633,242.573 L194.183,241.287 L183.506,234.019 L181.031,229.112 L178.524,230.378 L181.035,235.37 Z M161.824,240.013 C162.21914,239.897432 162.548797,239.623422 162.734652,239.256068 C162.920508,238.888714 162.945974,238.460804 162.805,238.074 C162.666332,237.531461 162.239702,237.109657 161.695621,236.977171 C161.151539,236.844685 160.578747,237.023125 160.206172,237.441174 C159.833597,237.859223 159.722006,238.448696 159.916,238.974 C160.019826,239.372623 160.284043,239.710478 160.645892,239.907317 C161.007742,240.104155 161.434934,240.142412 161.826,240.013 L161.824,240.013 Z M105.472,256.599 C109.06,257.259 111.817,255.937 112.338,253.105 C113.42,247.228 104.12,247.639 104.797,243.957 C105.032,242.683 106.323,242.163 108.258,242.519 C110.331518,243.008233 112.159214,244.228473 113.406,245.956 L115.053,243.771 C113.508686,241.757107 111.277182,240.382039 108.784,239.908 C105.149,239.239 102.218,240.579 101.675,243.529 C100.557,249.473 109.835,249.179 109.175,252.79 C108.975,253.9 107.796,254.319 106.167,254.019 C104.462707,253.62139 102.891847,252.78546 101.61,251.594 L100.003,253.837 C101.525882,255.259544 103.423231,256.217759 105.472,256.599 L105.472,256.599 Z M87.106,233.73 L81.031,249.395 L83.672,250.419 L89.747,234.754 L87.106,233.73 Z M61.706,219.74 L52.565,233.84 L54.901,235.354 L61.466,225.219 L62.449,240.244 L64.785,241.758 L73.926,227.664 L71.55,226.123 L64.995,236.231 L64.039,221.251 L61.706,219.74 Z M33.242,216.332 C35.2774846,218.63821 38.4001239,219.664768 41.4069789,219.016212 C44.413834,218.367657 46.835684,216.145194 47.7395562,213.204987 C48.6434283,210.26478 47.8882731,207.065649 45.765,204.84 C44.0644515,203.085911 41.7559256,202.050833 39.315,201.948 L39.086,204.454 C40.8412383,204.533328 42.5011246,205.275185 43.731,206.53 C45.1978568,208.074759 45.7212981,210.288681 45.1015425,212.326781 C44.481787,214.364881 42.8144785,215.91263 40.7359768,216.379299 C38.6574752,216.845968 36.4885452,216.159538 35.057,214.582 C33.8749539,213.242288 33.2902805,211.478517 33.438,209.698 L30.798,209.887 C30.7538899,212.269076 31.6279297,214.576813 33.239,216.332 L33.242,216.332 Z M15.474,186.055 L13.256,187.303 L19.143,197.763 L33.789,189.519 L27.76,178.809 L25.542,180.057 L30.181,188.3 L26.143,190.573 L22.117,183.419 L19.899,184.667 L23.926,191.819 L19.972,194.045 L15.474,186.055 Z M0.998,148.33 C1.40264222,150.549271 2.55828112,152.561841 4.271,154.03 L6.266,152.594 C4.87272325,151.56011 3.89405125,150.063025 3.506,148.372 C3.249,146.638 3.901,145.472 5.23,145.272 C6.643396,145.317554 7.99828431,145.847083 9.068,146.772 L16.553,151.92 L18.595,151.62 L16.841,139.798 L14.324,140.17 L15.524,148.291 L10.306,144.644 C8.146,143.17 6.08,142.166 4.394,142.415 C1.851,142.793 0.533,145.197 0.998,148.33 Z M0.037,119 C-0.33,123.592 2.482,126.369 7.912,126.8 C13.342,127.231 16.56,124.94 16.927,120.346 C17.292,115.776 14.48,113.001 9.05,112.567 C3.62,112.133 0.406,114.429 0.037,119 L0.037,119 Z M2.262,119.177 C2.485,116.377 4.562,115.123 8.819,115.464 C13.053,115.802 14.926,117.371 14.702,120.171 C14.476,122.993 12.378,124.247 8.144,123.909 C3.885,123.567 2.036,122 2.262,119.177 Z M6.088,89.011 C4.65,93.389 6.728,96.748 11.903,98.448 C17.078,100.148 20.744,98.677 22.182,94.3 C23.613,89.947 21.535,86.586 16.361,84.887 C11.187,83.188 7.519,84.658 6.088,89.011 Z M8.209,89.711 C9.085,87.044 11.396,86.311 15.454,87.646 C19.488,88.971 20.939,90.939 20.062,93.605 C19.178,96.295 16.845,97.019 12.81,95.692 C8.752,94.358 7.324,92.398 8.206,89.709 L8.209,89.711 Z M32.352,71.76 L17.783,63.394 L14.735,68.701 L16.921,69.956 L18.558,67.104 L30.942,74.219 L32.352,71.76 Z M38.906,57.136 C38.6433327,57.4533187 38.5237516,57.8652203 38.5756611,58.2738653 C38.6275706,58.6825102 38.8463383,59.051432 39.18,59.293 C39.5982799,59.6676479 40.1894729,59.7802097 40.7161607,59.5854815 C41.2428485,59.3907534 41.6186285,58.9206803 41.6925904,58.3640398 C41.7665524,57.8073992 41.526563,57.2555076 41.069,56.93 C40.7601723,56.657994 40.3525963,56.5258307 39.9429141,56.5648481 C39.533232,56.6038654 39.1579308,56.8105884 38.906,57.136 L38.906,57.136 Z" id="MADE_IN_GERMANY._SINCE_2001."></path>
            <path d="M112.436,150.39 L122.951,147.302 L114.725,139.779 C117.096,137.164 117.765,133.655 116.563,129.561 C114.677,123.14 109.23,120.773 101.605,123.013 L88.005,127.008 L96.268,155.14 L105.579,152.406 L103.434,145.106 L106.925,144.081 L112.436,150.39 Z M101.354,138.039 L99.386,131.339 L103.68,130.078 C105.686,129.488 107.204,130.351 107.817,132.437 C108.453,134.604 107.655,136.19 105.648,136.78 L101.354,138.039 Z M142.965,118.539 L140.891,111.476 L117.091,118.466 L125.354,146.598 L149.513,139.498 L147.438,132.435 L132.59,136.796 L131.564,133.305 L144.727,129.439 L142.653,122.376 L129.49,126.242 L128.476,122.79 L142.965,118.539 Z M167.65,124.672 L172.03,102.331 L162.759,105.053 L160.484,117.492 L151.643,108.318 L142.373,111.041 L158.398,127.608 L160.909,136.156 L170.219,133.421 L167.65,124.672 Z" id="REY"></path>
        </g>
    </g>
</svg>
